<svg xmlns="http://www.w3.org/2000/svg" width="63.328" height="60.82" viewBox="0 0 63.328 60.82">
  <g id="Group_339" data-name="Group 339" transform="translate(-3.857 -3.27)">
    <g id="Group_2" data-name="Group 2">
      <g id="Group_1" data-name="Group 1">
        <path id="Path_1" data-name="Path 1" d="M66.81,37.06c.91,2.19.06,5.24-1.43,7-3.23,3.82-7.86,5.23-12.09,7.33-4,1.98-7.87,4.05-10.87,7.52a29.987,29.987,0,0,1-4.25,3.45c-.22-.17-.52-.4-.87-.66a25.487,25.487,0,0,1,4.09-8.53c2.11-2.65,4.09-5.43,6.39-7.91,3.38-3.66,7.96-5.65,12.15-8.17.93-.56,1.92-1.03,2.84-1.61a3.386,3.386,0,0,1,3.25-.46c.29.7.52,1.38.79,2.04" fill="#fff"/>
        <path id="Path_2" data-name="Path 2" d="M60.46,26.92a2.671,2.671,0,0,1,.1,1.96,7.266,7.266,0,0,1-1.73,2.41A32.707,32.707,0,0,1,53.7,35.3a65.883,65.883,0,0,0-11.97,9.17c-3.53,3.26-6.98,6.7-10.91,9.41a41.405,41.405,0,0,0-9.14,8.21c-.53.67-1.08,1.33-1.62,2-.04-.13-.08-.26-.12-.4.09-1.3.18-2.59.28-3.88a1.118,1.118,0,0,1,.15-.38c4.02-8.39,8.36-16.67,15.29-23A103.849,103.849,0,0,1,56.1,21.55c.99-.54,1.46-.44,1.93.67.68,1.61,1.69,3.09,2.43,4.7" fill="#fff"/>
        <path id="Path_3" data-name="Path 3" d="M54.38,11.67a3.219,3.219,0,0,1-.95,4.78c-5.69,3.89-11.58,7.52-16.99,11.78C27.02,35.66,17.26,42.75,8.93,51.5,7.5,53,6.09,54.53,4.66,56.04c-.13-.04-.27-.08-.4-.11v-3.2a8.666,8.666,0,0,0-.05-2.65,6.672,6.672,0,0,1,.31-5.03,46.547,46.547,0,0,1,2.76-5.46A102.816,102.816,0,0,1,40.13,6.05,51.765,51.765,0,0,1,45.24,3.5c.67-.33,1.3-.4,1.71.44.11.22.4.54.57.53a5.162,5.162,0,0,1,3.63,1.19c.53.4,1.27.89,1.38,1.44a10.889,10.889,0,0,0,1.85,4.57" fill="#fff"/>
      </g>
    </g>
  </g>
</svg>
